<svg xmlns="http://www.w3.org/2000/svg" height="48" viewBox="0 96 960 960" width="48"><path d="M220 579q0 64 27.5 117.5T337 790v-94q0-13 8.5-21.5T367 666q13 0 21.5 8.5T397 696v170q0 13-8.5 21.5T367 896H197q-13 0-21.5-8.5T167 866q0-13 8.5-21.5T197 836h100q-64-48-100.5-108.5T160 579q0-89 46.5-167.5T340 291q11-5 21.5 0t15.5 16q4 11 0 22t-15 16q-62 32-102 94.5T220 579Zm380 317q-50 0-85-35t-35-85q0-48 33-83t81-37q17-36 50.5-58t75.5-22q53 0 91.5 34.5T858 696h2q42 0 71 30t29 69q0 42-29 71.5T860 896H600Zm136-360q-11-51-38-93.5T626 362v94q0 13-8.5 21.5T596 486q-13 0-21.5-8.5T566 456V286q0-13 8.5-21.5T596 256h170q13 0 21.5 8.5T796 286q0 13-8.5 21.5T766 316H665q49 41 86.5 100.5T797 536h-61Z"/></svg>